<?xml version="1.0" encoding="utf-8"?>
<!-- Generator: Adobe Illustrator 16.0.0, SVG Export Plug-In . SVG Version: 6.00 Build 0)  -->
<!DOCTYPE svg PUBLIC "-//W3C//DTD SVG 1.1//EN" "http://www.w3.org/Graphics/SVG/1.1/DTD/svg11.dtd">
<svg version="1.1" id="Layer_1" xmlns="http://www.w3.org/2000/svg" xmlns:xlink="http://www.w3.org/1999/xlink" x="0px" y="0px"
	 width="100px" height="100px" viewBox="0 0 100 100" enable-background="new 0 0 100 100" xml:space="preserve">
<g>
	<path fill="#F04C25" d="M50,0C22.386,0,0,22.386,0,50s22.386,50,50,50c27.613,0,50-22.386,50-50S77.613,0,50,0z M68.667,24.021
		c-3.483,0-7.249,0-9.03,0c-1.787,0-3.595,1.852-3.595,3.228c0,1.373,0,9.209,0,9.209s11.158,0,12.606,0
		c-0.504,7.062-1.547,13.52-1.547,13.52H55.979V90H39.402V49.978h-8.069V36.509h8.069c0,0,0-8.999,0-11.015
		C39.402,23.481,38.993,10,56.387,10c2.336,0,7.627,0,12.28,0C68.667,15.851,68.667,22.187,68.667,24.021z"/>
</g>
</svg>
