<?xml version="1.0" encoding="utf-8"?>
<!-- Generator: Adobe Illustrator 16.0.0, SVG Export Plug-In . SVG Version: 6.00 Build 0)  -->
<!DOCTYPE svg PUBLIC "-//W3C//DTD SVG 1.1//EN" "http://www.w3.org/Graphics/SVG/1.1/DTD/svg11.dtd">
<svg version="1.1" id="Layer_1" xmlns="http://www.w3.org/2000/svg" xmlns:xlink="http://www.w3.org/1999/xlink" x="0px" y="0px"
	 width="200px" height="101.64px" viewBox="0 0 200 101.64" enable-background="new 0 0 200 101.64" xml:space="preserve">
<g>
	<rect x="0.878" fill="none" stroke="#000000" width="11.105" height="6.915"/>
	<rect x="104.883" fill="none" stroke="#000000" width="11.104" height="6.915"/>
	<path fill="#D9272E" stroke="#000000" d="M12.18,65.949c1.796-1.235,3.146-2.316,4.052-3.241c1.602-1.603,2.401-3.117,2.401-4.546
		c0-0.404-0.096-0.734-0.29-0.984c-0.212-0.232-0.51-0.346-0.895-0.346c-0.193,0-0.435,0.022-0.723,0.072
		c-0.29,0.047-0.494,0.072-0.608,0.072c-1.179,0-2.196-0.415-3.054-1.245c-0.861-0.831-1.289-1.95-1.289-3.36
		c0-1.484,0.448-2.691,1.344-3.616c0.896-0.927,2.072-1.391,3.52-1.391c1.772,0,3.225,0.622,4.356,1.866
		c1.125,1.246,1.694,2.911,1.694,4.994c0,3.185-1.277,6.082-3.824,8.685c-1.388,1.39-3.385,2.838-5.99,4.344L12.18,65.949z"/>
	<path fill="none" stroke="#000000" d="M187.22,52.619c-2.911,0-6.228,1.149-8.461,3.383v-2.979h-9.347h-0.199v1.051h-1.057v-1.051
		h-0.232h-9.278v2.979c-2.234-2.233-4.401-3.383-8.125-3.383c-3.521,0-6.5,1.149-8.599,3.248c-0.229,0.231-0.41,0.474-0.609,0.712
		v-3.554h-11.104v1.788c-3.12-1.706-6.897-2.194-11.309-2.194c-5.272,0-10.527,2.124-13.008,6.377
		c-2.743-3.892-7.206-6.377-13.199-6.377c-5.66,0-10.326,2.372-13.204,6.774V43.895h-0.163c1.119-0.581,2.152-1.272,3.145-2.096
		v3.634h11.103V23.631c0-4.13,2.979-5.01,4.47-5.01c1.898,0,2.911,0.811,3.996,1.895l2.843-2.889v27.806h11.104v-5.597
		c3.416,4.828,8.992,6.003,14.086,6.003c0.048,0,0.086-0.005,0.135-0.005v5.1h11.104v-6.917h-2.369
		c1.786-0.889,3.355-2.077,4.901-3.577c0.476,0.782,1.063,1.543,1.803,2.284c1.961,1.964,4.74,3.114,8.191,3.114
		c2.911,0,6.23-1.15,8.464-3.385v2.979h9.347h1.488h9.617V23.631c0-4.13,2.978-5.01,4.467-5.01c1.896,0,2.912,0.811,3.997,1.895
		l8.395-8.531c-2.506-2.505-4.943-3.385-8.529-3.385c-3.796,0-6.977,1.76-8.599,3.385V9.006h-9.348h-0.204v1.067h-1.06V9.006h-0.225
		h-9.619v21.801c0,4.197-2.976,5.011-4.466,5.011c-1.489,0-4.469-0.814-4.469-5.011V9.006H141.99v5.622
		c-2.764-3.686-7.127-6.028-12.932-6.028c-5.572,0-10.185,2.299-13.071,6.569V9.006h-10.493c-1.08-0.282-2.254-0.406-3.589-0.406
		c-3.792,0-6.976,1.76-8.599,3.385V9.006H82.471v6.09C79.736,11.139,75.249,8.6,69.199,8.6c-4.76,0-8.828,1.669-11.713,4.818v-2.989
		h-5.753V0H40.626v10.429h-3.318v0.677C35.403,9.519,32.869,8.6,29.792,8.6c-2.911,0-6.23,1.151-8.464,3.385V9.006h-9.026v1.067
		h-1.057V9.006h-0.752H0.878v36.427h4.664c-1.595,1.976-2.427,4.491-2.427,7.387c0,4.807,2.842,8.057,4.533,9.953
		C4.063,65.144,0,69.274,0,74.825c0,9.412,4.941,15.033,16.316,15.033c6.434,0,9.072-2.17,11.44-3.929l3.048,3.521h13.948
		l-9.411-11.036c3.52-3.86,5.148-8.802,5.618-15.099H30.536c-0.204,2.301-0.881,5.416-2.237,6.974l-5.688-6.568
		C23.832,62.909,26,61.216,26,61.216c2.977-2.235,4.737-4.604,4.737-8.262c0-5.801-3.292-10.201-9.138-11.625V23.631
		c0-4.199,2.98-5.01,4.47-5.01c1.487,0,4.468,0.811,4.468,5.01v21.802h11.104v-6.022c1.506,3.317,4.768,6.022,10.293,6.022h5.552
		V41.46c2.962,3.005,6.982,4.083,10.901,4.321v9.882c-2.032-2.031-4.539-3.045-8.125-3.045c-3.523,0-6.704,1.217-8.802,3.314
		c-3.589,3.59-3.385,9.955-3.385,15.304c0,5.348-0.204,11.711,3.385,15.3c2.099,2.101,5.349,3.32,8.869,3.32
		c3.792,0,6.161-1.153,8.397-3.387v2.979h10.763v-5.809c3.403,4.999,9.055,6.216,14.22,6.216c5.013,0,8.315-1.122,11.204-3.209
		c4.284,3.006,8.782,3.209,13.378,3.209c4.671,0,8.983-1.142,11.917-3.605v3.198h11.104v-6.263c0.199,0.236,0.38,0.482,0.609,0.712
		c2.099,2.096,5.01,3.249,8.532,3.249c3.385,0,5.822-1.016,7.853-3.047v2.639c0,2.37-1.218,5.552-5.892,5.552
		c-2.503,0-4.533-0.61-6.228-2.299l-6.907,6.904c3.726,3.724,7.99,4.742,13.678,4.742c8.898,0,15.024-4.987,16.225-12.19h9.844
		V67.648c0-4.196,2.98-5.009,4.47-5.009s4.467,0.813,4.467,5.009V89.45h11.107V66.159c0-3.859-0.542-7.313-3.657-10.428
		C193.449,53.768,190.674,52.619,187.22,52.619z M124.251,20.583c0.677-1.558,2.167-2.844,4.808-2.844
		c2.639,0,4.129,1.287,4.807,2.844c0.473,0.95,0.609,1.964,0.609,2.844h-10.833C123.642,22.548,123.776,21.534,124.251,20.583z
		 M141.99,30.807v1.49c0,2.357,0.209,4.56,1.077,6.63l-5.479-5.479c-1.964,1.963-3.654,3.046-7.516,3.046
		c-4.13,0-6.432-2.708-6.432-5.688H141.99z M53.963,36.088c-1.487,0-2.231-0.812-2.231-2.233V18.958h2.485
		c-0.86,2.38-1.337,5.137-1.337,8.262c0,3.597,0.504,6.495,1.353,8.868H53.963z M63.782,79.836c-4.131,0-4.605-3.318-4.605-8.599
		c0-5.282,0.474-8.598,4.605-8.598c4.129,0,4.605,3.316,4.605,8.598C68.387,76.518,67.911,79.836,63.782,79.836z M64.39,20.583
		c0.681-1.558,2.168-2.844,4.809-2.844c2.642,0,4.13,1.287,4.81,2.844c0.47,0.95,0.606,1.964,0.606,2.844h-10.83
		C63.785,22.548,63.919,21.534,64.39,20.583z M70.216,36.495c-4.132,0-6.431-2.708-6.431-5.688h18.686v7.383l-4.742-4.741
		C75.765,35.412,74.075,36.495,70.216,36.495z M87.887,64.601c0.677-1.557,2.167-2.844,4.806-2.844c2.641,0,4.131,1.287,4.808,2.844
		c0.475,0.949,0.609,1.965,0.609,2.844H87.278C87.278,66.565,87.413,65.549,87.887,64.601z M118.492,80.443
		c-1.896,0-5.824,0-8.866-3.046l-4.236,4.234l-4.164-4.165c-1.964,1.962-3.655,3.046-7.517,3.046c-4.128,0-6.431-2.707-6.431-5.688
		h21.803v-1.218c1.634,0.893,3.629,1.406,5.892,1.626l5.617,0.541c2.168,0.203,2.642,1.287,2.642,2.302
		C123.231,79.97,120.116,80.443,118.492,80.443z M130.208,68.956c-1.734-1.334-4.075-2.231-7.112-2.526l-5.618-0.542
		c-2.505-0.272-2.371-1.626-2.371-2.031c0-0.813,0.881-2.1,3.588-2.1c2.844,0,5.892,0.339,7.721,2.168l3.793-3.795V68.956z
		 M153.974,77.126c-4.062,0-4.332-3.52-4.332-7.244c0-3.723,0.271-7.244,4.332-7.244c4.063,0,4.333,3.521,4.333,7.244
		C158.307,73.606,158.036,77.126,153.974,77.126z"/>
</g>
</svg>
