<?xml version="1.0" encoding="utf-8"?>
<!-- Generator: Adobe Illustrator 16.0.0, SVG Export Plug-In . SVG Version: 6.00 Build 0)  -->
<!DOCTYPE svg PUBLIC "-//W3C//DTD SVG 1.1//EN" "http://www.w3.org/Graphics/SVG/1.1/DTD/svg11.dtd">
<svg version="1.1" id="Layer_1" xmlns="http://www.w3.org/2000/svg" xmlns:xlink="http://www.w3.org/1999/xlink" x="0px" y="0px"
	 width="474.85px" height="241.783px" viewBox="0 0 474.85 241.783" enable-background="new 0 0 474.85 241.783"
	 xml:space="preserve">
<g>
	<rect x="2.09" fill="none" stroke="#000000" stroke-width="1.1416" width="26.419" height="16.449"/>
	<rect x="249.501" fill="none" stroke="#000000" stroke-width="1.1416" width="26.416" height="16.449"/>
	<path fill="#D9272E" d="M28.975,156.883c4.271-2.938,7.482-5.51,9.639-7.711c3.812-3.813,5.713-7.414,5.713-10.814
		c0-0.963-0.229-1.746-0.689-2.342c-0.504-0.551-1.212-0.822-2.129-0.822c-0.459,0-1.033,0.053-1.72,0.17
		c-0.69,0.113-1.175,0.172-1.446,0.172c-2.806,0-5.225-0.986-7.265-2.961c-2.05-1.975-3.066-4.637-3.066-7.992
		c0-3.529,1.066-6.4,3.198-8.602c2.133-2.205,4.928-3.309,8.374-3.309c4.216,0,7.671,1.48,10.361,4.439
		c2.677,2.965,4.03,6.924,4.03,11.881c0,7.576-3.037,14.467-9.097,20.66c-3.302,3.307-8.052,6.75-14.25,10.332L28.975,156.883z"/>
	<path fill="none" stroke="#000000" stroke-width="1.1416" d="M445.367,125.172c-6.925,0-14.814,2.734-20.128,8.047v-7.086h-22.235
		h-0.472v2.498h-2.515v-2.498h-0.552h-22.072v7.086c-5.314-5.313-10.471-8.047-19.329-8.047c-8.374,0-15.462,2.734-20.455,7.727
		c-0.545,0.549-0.975,1.129-1.449,1.693v-8.455h-26.416v4.254c-7.421-4.057-16.408-5.219-26.901-5.219
		c-12.541,0-25.041,5.051-30.942,15.17c-6.525-9.258-17.141-15.17-31.397-15.17c-13.464,0-24.563,5.643-31.41,16.113V104.42h-0.389
		c2.662-1.383,5.122-3.027,7.483-4.986v8.645H222.6V56.215c0-9.824,7.087-11.918,10.632-11.918c4.515,0,6.925,1.93,9.507,4.508
		l6.763-6.873v66.146h26.416V94.764c8.126,11.484,21.39,14.279,33.507,14.279c0.115,0,0.205-0.01,0.32-0.01v12.131h26.416v-16.453
		h-5.635c4.248-2.115,7.981-4.941,11.658-8.51c1.133,1.861,2.528,3.672,4.289,5.434c4.666,4.674,11.277,7.408,19.486,7.408
		c6.926,0,14.821-2.734,20.133-8.053v7.088h22.237h3.538h22.878V56.215c0-9.824,7.084-11.918,10.628-11.918
		c4.509,0,6.926,1.93,9.507,4.508l19.97-20.295c-5.961-5.959-11.76-8.053-20.29-8.053c-9.028,0-16.597,4.188-20.455,8.053v-7.086
		h-22.237h-0.484v2.539h-2.52v-2.539h-0.534h-22.885v51.861c0,9.984-7.077,11.922-10.622,11.922
		c-3.542,0-10.632-1.938-10.632-11.922V21.424h-26.417v13.373c-6.574-8.768-16.953-14.34-30.762-14.34
		c-13.257,0-24.229,5.469-31.095,15.627v-14.66h-24.961c-2.57-0.672-5.363-0.967-8.538-0.967c-9.021,0-16.595,4.188-20.455,8.053
		v-7.086h-25.775V35.91c-6.507-9.412-17.182-15.453-31.573-15.453c-11.324,0-21,3.97-27.865,11.461v-7.109h-13.686V0H96.645v24.809
		h-7.893v1.611c-4.532-3.775-10.563-5.963-17.881-5.963c-6.925,0-14.82,2.738-20.134,8.053v-7.086H29.265v2.539H26.75v-2.539h-1.789
		H2.09v86.654h11.094c-3.793,4.701-5.773,10.684-5.773,17.572c0,11.436,6.761,19.166,10.784,23.676
		C9.664,154.967,0,164.791,0,177.996c0,22.389,11.754,35.762,38.814,35.762c15.305,0,21.58-5.162,27.215-9.348l7.252,8.377h33.18
		l-22.387-26.252c8.374-9.184,12.246-20.941,13.365-35.92H72.641c-0.485,5.475-2.096,12.885-5.32,16.59l-13.53-15.623
		c2.902-1.932,8.06-5.957,8.06-5.957c7.082-5.318,11.27-10.953,11.27-19.654c0-13.799-7.833-24.268-21.739-27.654V56.215
		c0-9.988,7.09-11.918,10.633-11.918c3.538,0,10.628,1.93,10.628,11.918v51.863h26.416V93.754
		c3.582,7.889,11.342,14.324,24.485,14.324h13.207v-9.451c7.047,7.148,16.609,9.711,25.934,10.279v23.51
		c-4.835-4.834-10.797-7.244-19.329-7.244c-8.38,0-15.946,2.895-20.939,7.885c-8.536,8.541-8.052,23.68-8.052,36.406
		c0,12.721-0.484,27.859,8.052,36.396c4.993,4.996,12.725,7.898,21.098,7.898c9.021,0,14.656-2.744,19.977-8.057v7.086h25.604
		v-13.816c8.095,11.889,21.538,14.787,33.827,14.787c11.925,0,19.781-2.668,26.653-7.637c10.19,7.152,20.892,7.637,31.823,7.637
		c11.11,0,21.369-2.719,28.348-8.578v7.607h26.416v-14.9c0.475,0.563,0.904,1.146,1.449,1.695c4.993,4.986,11.919,7.73,20.299,7.73
		c8.051,0,13.851-2.418,18.68-7.248v6.277c0,5.637-2.897,13.209-14.016,13.209c-5.955,0-10.783-1.451-14.813-5.471l-16.432,16.424
		c8.863,8.859,19.007,11.279,32.536,11.279c21.169,0,35.741-11.863,38.596-28.996h23.417v-51.863c0-9.982,7.09-11.916,10.635-11.916
		c3.542,0,10.626,1.934,10.626,11.916v51.863h26.423v-55.406c0-9.18-1.291-17.396-8.701-24.807
		C460.188,127.906,453.583,125.172,445.367,125.172z M295.573,48.965c1.611-3.705,5.155-6.766,11.438-6.766
		c6.277,0,9.822,3.061,11.434,6.766c1.125,2.26,1.448,4.674,1.448,6.766h-25.769C294.125,53.639,294.445,51.225,295.573,48.965z
		 M337.773,73.285v3.545c0,5.607,0.496,10.848,2.563,15.771L327.304,79.57c-4.673,4.67-8.694,7.244-17.88,7.244
		c-9.823,0-15.299-6.441-15.299-13.529H337.773z M128.371,85.848c-3.538,0-5.308-1.932-5.308-5.313V45.1h5.912
		c-2.047,5.662-3.182,12.221-3.182,19.652c0,8.557,1.201,15.449,3.218,21.096H128.371z M151.728,189.918
		c-9.827,0-10.955-7.893-10.955-20.455c0-12.566,1.128-20.455,10.955-20.455c9.823,0,10.955,7.889,10.955,20.455
		C162.683,182.025,161.551,189.918,151.728,189.918z M153.174,48.965c1.62-3.705,5.158-6.766,11.44-6.766
		c6.284,0,9.823,3.061,11.44,6.766c1.119,2.26,1.442,4.674,1.442,6.766h-25.763C151.734,53.639,152.055,51.225,153.174,48.965z
		 M167.033,86.814c-9.829,0-15.299-6.441-15.299-13.529h44.453v17.563l-11.28-11.277C180.234,84.24,176.213,86.814,167.033,86.814z
		 M209.069,153.676c1.611-3.705,5.156-6.766,11.434-6.766c6.282,0,9.827,3.061,11.438,6.766c1.128,2.256,1.448,4.672,1.448,6.766
		h-25.769C207.621,158.348,207.943,155.932,209.069,153.676z M281.875,191.363c-4.509,0-13.854,0-21.092-7.248l-10.077,10.074
		l-9.906-9.91c-4.671,4.67-8.694,7.246-17.88,7.246c-9.82,0-15.299-6.439-15.299-13.529h51.865V175.1
		c3.889,2.121,8.634,3.342,14.015,3.867l13.365,1.285c5.155,0.484,6.282,3.061,6.282,5.475
		C293.148,190.238,285.738,191.363,281.875,191.363z M309.744,164.035c-4.126-3.172-9.694-5.309-16.917-6.008l-13.365-1.291
		c-5.961-0.646-5.641-3.867-5.641-4.83c0-1.936,2.096-4.996,8.536-4.996c6.763,0,14.015,0.807,18.365,5.156l9.021-9.027V164.035z
		 M366.28,183.473c-9.663,0-10.306-8.375-10.306-17.232c0-8.859,0.643-17.232,10.306-17.232c9.664,0,10.308,8.373,10.308,17.232
		C376.588,175.098,375.944,183.473,366.28,183.473z"/>
</g>
</svg>
