<?xml version="1.0" encoding="utf-8"?>
<!-- Generator: Adobe Illustrator 16.0.0, SVG Export Plug-In . SVG Version: 6.00 Build 0)  -->
<!DOCTYPE svg PUBLIC "-//W3C//DTD SVG 1.1//EN" "http://www.w3.org/Graphics/SVG/1.1/DTD/svg11.dtd">
<svg version="1.1" id="Layer_1" xmlns="http://www.w3.org/2000/svg" xmlns:xlink="http://www.w3.org/1999/xlink" x="0px" y="0px"
	 width="100px" height="100px" viewBox="0 0 100 100" enable-background="new 0 0 100 100" xml:space="preserve">
<g>
	<path fill="#E94D29" d="M50,0C22.386,0,0,22.386,0,50c0,27.615,22.386,50,50,50s50-22.385,50-50C100,22.386,77.614,0,50,0z
		 M52.313,67.567c1.157,8.354-1.797,18.521-10.933,21.62c-4.361,1.479-9.12,0.813-13.256-0.979
		c-4.511-1.953-2.091-9.62-2.468-13.489c2.75,0.581,5.384,3.367,8.363,2.05c2.571-1.139,2.634-6.651,2.728-8.948
		c0.319-7.708-0.263-15.521-0.263-23.242c0-2.583,0-5.167,0-7.75c0-1.06,0-2.122,0-3.185c0-1.313,0.077-1.119,1.287-1.327
		c3.234-0.558,6.643-0.382,9.903-0.126c0.928,0.073,1.851,0.163,2.776,0.276c1.172,0.146,1.033-0.12,1.033,1.293
		c0,2.306,0,4.61,0,6.913c0,4.609,0,9.219,0,13.826c0,1.763,1.455,1.705,3.091,2.091c0.964,0.227,1.944,0.394,2.93,0.492
		c1.77,0.174,3.566,0.125,5.316-0.186c2.997-0.533,5.832-1.846,8.064-3.83c4.271-3.792,5.28-9.581,3.739-14.818
		C70.896,25.604,54.239,20.489,41.95,23.452c-13.201,3.188-23.754,17.483-13.796,29.02c-2.979,2.542-5.546,5.567-9.024,7.531
		c-0.841,0.477-1.723,0.883-2.637,1.208c-0.514-0.531-0.989-1.091-1.431-1.677c-0.912-1.201-1.68-2.5-2.318-3.849
		C9.876,49.617,9.42,42.531,10.62,36.031c1.952-10.579,8.945-18.433,19.235-22.508c17.138-6.784,41.72-4.013,53.83,10.433
		c6.464,7.709,8.277,18.974,3.984,28.042C81.638,64.732,66.414,71.781,52.313,67.567z"/>
</g>
</svg>
