<?xml version="1.0" encoding="utf-8"?>
<!-- Generator: Adobe Illustrator 16.0.0, SVG Export Plug-In . SVG Version: 6.00 Build 0)  -->
<!DOCTYPE svg PUBLIC "-//W3C//DTD SVG 1.1//EN" "http://www.w3.org/Graphics/SVG/1.1/DTD/svg11.dtd">
<svg version="1.1" id="Layer_1" xmlns="http://www.w3.org/2000/svg" xmlns:xlink="http://www.w3.org/1999/xlink" x="0px" y="0px"
	 width="100px" height="100px" viewBox="0 0 100 100" enable-background="new 0 0 100 100" xml:space="preserve">
<g>
	<path fill="#F04C25" d="M50,0C22.386,0,0,22.386,0,50s22.386,50,50,50s50-22.386,50-50S77.614,0,50,0z M80.455,51.469
		C73.932,77.906,30.144,89.122,10,61.675c7.715,7.361,21.151,8.009,29.671-0.796c-4.994,0.732-8.63-4.168-2.493-6.814
		c-5.52,0.604-8.59-2.332-9.847-4.825c1.294-1.354,2.721-1.983,5.483-2.165c-6.045-1.428-8.276-4.382-8.96-7.968
		c1.679-0.402,3.777-0.745,4.924-0.591c-5.296-2.767-7.134-6.929-6.844-10.059c9.46,3.513,15.486,6.332,20.526,9.035
		c1.797,0.958,3.799,2.683,6.059,4.872c2.875-7.605,6.432-15.445,12.521-19.333c-0.101,0.883-0.575,1.702-1.2,2.375
		c1.732-1.568,3.971-2.648,6.254-2.961c-0.264,1.712-2.728,2.675-4.217,3.235c1.127-0.35,7.119-3.023,7.771-1.501
		c0.772,1.731-4.133,2.53-4.969,2.829c-0.621,0.208-1.244,0.439-1.859,0.687c7.597-0.756,14.845,5.507,16.963,13.281
		c0.15,0.561,0.3,1.18,0.438,1.833c2.778,1.034,7.809-0.051,9.432-1.047c-1.174,2.772-4.221,4.814-8.715,5.185
		c2.166,0.901,6.246,1.395,9.063,0.917C88.219,49.776,85.344,51.512,80.455,51.469z"/>
</g>
</svg>
