<?xml version="1.0" encoding="utf-8"?>
<!-- Generator: Adobe Illustrator 16.0.0, SVG Export Plug-In . SVG Version: 6.00 Build 0)  -->
<!DOCTYPE svg PUBLIC "-//W3C//DTD SVG 1.1//EN" "http://www.w3.org/Graphics/SVG/1.1/DTD/svg11.dtd">
<svg version="1.1" id="Layer_1" xmlns="http://www.w3.org/2000/svg" xmlns:xlink="http://www.w3.org/1999/xlink" x="0px" y="0px"
	 width="100px" height="100px" viewBox="0 0 100 100" enable-background="new 0 0 100 100" xml:space="preserve">
<g>
	<path fill="#E94D29" d="M50,0C22.386,0,0,22.386,0,50c0,27.615,22.386,50,50,50s50-22.385,50-50C100,22.386,77.614,0,50,0z
		 M80.455,51.469C73.931,77.907,30.144,89.122,10,61.675c7.715,7.361,21.151,8.008,29.672-0.795
		c-4.995,0.732-8.63-4.169-2.493-6.814c-5.521,0.604-8.59-2.333-9.847-4.826c1.293-1.354,2.721-1.983,5.483-2.165
		c-6.045-1.428-8.276-4.382-8.96-7.968c1.679-0.402,3.776-0.745,4.924-0.591c-5.295-2.768-7.134-6.929-6.844-10.059
		c9.46,3.512,15.486,6.332,20.526,9.035c1.797,0.958,3.799,2.683,6.059,4.872c2.876-7.605,6.432-15.444,12.521-19.333
		c-0.101,0.883-0.575,1.702-1.2,2.375c1.731-1.568,3.971-2.648,6.254-2.961c-0.264,1.712-2.728,2.675-4.217,3.235
		c1.128-0.35,7.119-3.023,7.772-1.501c0.772,1.731-4.134,2.53-4.969,2.829c-0.622,0.208-1.245,0.438-1.859,0.687
		c7.596-0.756,14.844,5.507,16.962,13.281c0.149,0.56,0.3,1.18,0.438,1.833c2.777,1.034,7.809-0.051,9.431-1.047
		c-1.174,2.772-4.221,4.814-8.714,5.185c2.165,0.901,6.246,1.395,9.063,0.917C88.219,49.775,85.344,51.511,80.455,51.469z"/>
</g>
</svg>
