<?xml version="1.0" encoding="utf-8"?>
<!-- Generator: Adobe Illustrator 16.0.0, SVG Export Plug-In . SVG Version: 6.00 Build 0)  -->
<!DOCTYPE svg PUBLIC "-//W3C//DTD SVG 1.1//EN" "http://www.w3.org/Graphics/SVG/1.1/DTD/svg11.dtd">
<svg version="1.1" id="Layer_1" xmlns="http://www.w3.org/2000/svg" xmlns:xlink="http://www.w3.org/1999/xlink" x="0px" y="0px"
	 width="200px" height="200px" viewBox="0 0 200 200" enable-background="new 0 0 200 200" xml:space="preserve">
<g>
	<g>
		<defs>
			<rect id="SVGID_1_" x="6.668" width="186.664" height="200"/>
		</defs>
		<clipPath id="SVGID_2_">
			<use xlink:href="#SVGID_1_"  overflow="visible"/>
		</clipPath>
		<path clip-path="url(#SVGID_2_)" fill-rule="evenodd" clip-rule="evenodd" fill="#E5E5E5" d="M82.232,0
			C40.479,0,6.668,33.812,6.668,75.569c0,41.705,33.812,75.56,75.564,75.56c16.015,0,30.903-5.036,43.141-13.542l57.162,57.118
			c0.479,0.521,1.347,0.521,1.823,0.044l10.764-10.764c0.479-0.521,0.435-1.347-0.044-1.823l-56.38-56.424
			c11.893-13.325,19.099-30.904,19.099-50.169C157.797,33.812,123.941,0,82.232,0L82.232,0z M82.232,142.231
			c-36.812,0-66.667-29.862-66.667-66.663c0-36.809,29.856-66.667,66.667-66.667c36.805,0,66.667,29.857,66.667,66.667
			C148.899,112.369,119.037,142.231,82.232,142.231L82.232,142.231z M82.232,142.231"/>
	</g>
</g>
</svg>
